<?xml version="1.0" encoding="UTF-8"?>
<svg version="1.1" xmlns="http://www.w3.org/2000/svg" width="1222" height="390">
<path d="M0 0 C28.43312601 -0.09342046 56.86622903 -0.16396808 85.29947758 -0.20724869 C98.50138032 -0.22787831 111.70318774 -0.25600674 124.9050293 -0.30175781 C136.41107463 -0.3416131 147.91705092 -0.3674299 159.42316335 -0.37635398 C165.51619 -0.38157089 171.60901913 -0.39384122 177.7019825 -0.42292023 C183.43683862 -0.45006842 189.17141583 -0.45844607 194.90633011 -0.45243073 C197.01101764 -0.45353122 199.11571449 -0.46148846 201.22034645 -0.4768219 C204.0952837 -0.49674016 206.96916961 -0.49193219 209.84413147 -0.48101807 C210.67585926 -0.49266943 211.50758704 -0.5043208 212.3645187 -0.51632524 C218.03246483 -0.45821431 221.34103946 0.72709113 226 4 C229.1832152 8.5181119 229.45873596 12.63470717 229 18 C228.31024335 21.59225372 227.35241697 25.09200229 226.3671875 28.61328125 C226.09286896 29.62231003 225.81855042 30.63133881 225.53591919 31.67094421 C224.95382438 33.80447289 224.36688076 35.93668387 223.77539062 38.06762695 C222.88910292 41.26167518 222.01739988 44.45940332 221.1484375 47.65820312 C218.49021323 57.39021847 215.74593912 67.09597557 212.77734375 76.73828125 C212.54550385 77.50852127 212.31366394 78.27876129 212.07479858 79.07234192 C209.49649552 87.26841807 205.48608607 91.74132837 198.0625 96 C196.71654313 96.68308997 195.36514865 97.35612037 194 98 C194.94875 98.721875 195.8975 99.44375 196.875 100.1875 C199.70589031 102.57773286 201.13965475 104.30051543 202 108 C202.61316626 115.7090271 200.5122388 122.46730507 198.421875 129.84375 C198.0496469 131.18060076 197.67809726 132.51764059 197.30718994 133.8548584 C196.53021934 136.64715525 195.74608253 139.43730604 194.95654297 142.22607422 C193.95095053 145.77964177 192.96192908 149.33756312 191.97809982 152.89720917 C191.21379972 155.65635158 190.44142399 158.41318325 189.66660309 161.16938782 C189.12199586 163.11124885 188.58347724 165.0548142 188.04510498 166.99841309 C183.29081641 183.70361396 183.29081641 183.70361396 177.1875 188.8125 C176.56230469 189.35519531 175.93710938 189.89789063 175.29296875 190.45703125 C169.13250506 194.60248808 164.06370133 195.43665957 156.8061676 195.36076355 C155.44962386 195.36460846 155.44962386 195.36460846 154.0656752 195.36853105 C151.04693647 195.37345736 148.02870213 195.35699491 145.01000977 195.34057617 C142.84151725 195.33972965 140.67302388 195.34020553 138.50453186 195.34190369 C132.62489312 195.34276408 126.74543815 195.32513088 120.8658421 195.30418181 C114.71858989 195.2854226 108.57133343 195.28366516 102.42405701 195.28010559 C90.78656266 195.27078293 79.14915291 195.24616607 67.5116958 195.21605712 C54.26149517 195.18252007 41.01129049 195.16602883 27.76105797 195.15097082 C0.50732509 195.11961678 -26.74633271 195.06685189 -54 195 C-49.74039481 177.81796833 -49.74039481 177.81796833 -47.63183594 170.28662109 C-47.42548775 169.54290221 -47.21913956 168.79918333 -47.00653839 168.03292751 C-46.33445527 165.61254444 -45.65945105 163.19298733 -44.984375 160.7734375 C-44.49459861 159.01206685 -44.00500018 157.25064672 -43.51556396 155.48918152 C-42.20203706 150.76395242 -40.8859 146.03945417 -39.56918335 141.31511307 C-38.46855629 137.36487654 -37.36942969 133.41422321 -36.27032471 129.46356297 C-32.8106403 117.02798137 -29.34607759 104.5937616 -25.88058472 92.15979767 C-24.70906305 87.95603241 -23.5379471 83.75215417 -22.36684799 79.54827118 C-19.01178302 67.5046475 -15.65499774 55.46150443 -12.29652405 43.41883087 C-11.49975635 40.56162628 -10.70317547 37.70436964 -9.90661621 34.84710693 C-8.65934095 30.37348851 -7.41123288 25.90010324 -6.1624527 21.42690468 C-5.70450854 19.78611608 -5.24681603 18.14525723 -4.78939056 16.50432396 C-4.16694678 14.27164462 -3.54356398 12.03922963 -2.91992188 9.80688477 C-2.57119019 8.55722427 -2.2224585 7.30756378 -1.86315918 6.02003479 C-1.28590303 4.00032197 -0.66426384 1.99279153 0 0 Z M29 39 C27.57089981 44.07064511 26.14687113 49.14267645 24.72753906 54.21606445 C24.24390831 55.94204197 23.75889003 57.66763131 23.27246094 59.39282227 C22.57382557 61.87155205 21.88017966 64.35163151 21.1875 66.83203125 C20.96876221 67.60400345 20.75002441 68.37597565 20.5246582 69.17134094 C19.68229061 72.2029109 19 74.83747895 19 78 C37.08095993 78.1169928 55.16182113 78.20506601 73.24307823 78.25906086 C81.63923194 78.28480214 90.03514995 78.31987417 98.43115234 78.37719727 C105.75227034 78.42715768 113.07321758 78.45932063 120.39450133 78.47044247 C124.26830611 78.47694 128.14162254 78.49212455 132.01527023 78.52865028 C135.66793413 78.56281039 139.31991262 78.57301328 142.9727211 78.56553841 C144.93897537 78.567551 146.90515649 78.59434086 148.87121582 78.62210083 C157.44545353 78.5726487 164.37442777 77.15324458 170.90386009 71.29054737 C176.34395167 65.60425527 178.14309022 59.56212527 178.4375 51.8125 C178.33611967 47.98418553 178.14935964 46.26671365 176.25 42.875 C172.22156245 39.51796871 169.41330194 38.75015427 164.16607666 38.75949097 C162.97418228 38.75674164 161.7822879 38.75399231 160.55427551 38.75115967 C159.25020248 38.75835022 157.94612946 38.76554077 156.60253906 38.77294922 C155.21280424 38.77351348 153.82306882 38.77319648 152.43333435 38.77206421 C148.66297805 38.77149028 144.89274895 38.7832511 141.12242222 38.79721212 C137.18129178 38.80971275 133.24015844 38.81088946 129.29901123 38.81326294 C121.836972 38.81947967 114.37499136 38.83589311 106.91297793 38.85596192 C98.41728722 38.8783149 89.92159371 38.88931284 81.42588091 38.89935279 C63.95055338 38.92025917 46.47528289 38.9554389 29 39 Z M8 117 C7.52098382 118.25907713 7.0437232 119.51882223 6.56718445 120.77883911 C6.30121806 121.48028612 6.03525167 122.18173313 5.7612257 122.90443611 C4.6680779 125.91374208 3.80664145 128.96866325 2.95703125 132.0546875 C2.78370773 132.68230988 2.61038422 133.30993225 2.43180847 133.95657349 C2.07133241 135.26515698 1.71264296 136.57423391 1.35571289 137.88378906 C0.80769155 139.89262595 0.2528793 141.89950127 -0.30273438 143.90625 C-2.19118588 149.8673153 -2.19118588 149.8673153 -3 156 C15.21134422 156.11699 33.42259042 156.20506465 51.63422966 156.25906086 C60.09091659 156.28480272 68.54736954 156.31987591 77.00390625 156.37719727 C84.37776195 156.42715585 91.75144812 156.45932021 99.12546837 156.47044247 C103.02721728 156.4769403 106.92848136 156.49212685 110.83007431 156.52865028 C114.50900175 156.56280747 118.18724869 156.57301384 121.86631966 156.56553841 C123.84688666 156.56755124 125.82738102 156.59434262 127.80775452 156.62210083 C136.32770749 156.57330631 143.68130678 155.34260871 149.90350151 149.08595753 C154.5190999 143.56180436 156.598806 137.38149227 157.4375 130.3125 C156.76354425 125.2096922 153.94792363 121.26132822 150 118 C146.85368291 116.95122764 144.66455709 116.87676776 141.36225891 116.87974548 C139.6017218 116.87768349 139.6017218 116.87768349 137.80561829 116.87557983 C135.87216805 116.88097275 135.87216805 116.88097275 133.8996582 116.88647461 C132.529775 116.88675666 131.15989166 116.8865984 129.79000854 116.8860321 C126.06921727 116.88574482 122.34845814 116.89163051 118.62767434 116.89860606 C114.73991829 116.90485096 110.85216153 116.9054443 106.96440125 116.90663147 C99.60151443 116.90974142 92.23864244 116.91795031 84.87576216 116.92798096 C76.49375013 116.9391525 68.11173739 116.94465517 59.72971976 116.94967639 C42.48647126 116.96013318 25.2432372 116.97772615 8 117 Z " fill="#193282" transform="translate(71,22)"/>
<path d="M0 0 C1.26183175 0.00129972 1.26183175 0.00129972 2.54915506 0.0026257 C3.87940822 -0.00183098 3.87940822 -0.00183098 5.23653519 -0.0063777 C8.23209332 -0.01510488 11.22761168 -0.01657633 14.22318155 -0.01806521 C16.36135076 -0.02269063 18.49951914 -0.02771491 20.63768655 -0.03311038 C26.46429034 -0.04626497 32.2908826 -0.05268554 38.11749893 -0.05712104 C41.75502617 -0.06004747 45.39255021 -0.06415149 49.03007585 -0.06862521 C60.40292094 -0.08230957 71.77575879 -0.09197104 83.14861155 -0.0958271 C96.29135474 -0.10030721 109.4339939 -0.11784904 122.57670546 -0.1468277 C132.72450828 -0.16842831 142.87228181 -0.17853056 153.02010739 -0.17986822 C159.08565419 -0.18091762 165.15110332 -0.18685373 171.21662599 -0.20468783 C176.92356433 -0.22113997 182.6303313 -0.22333786 188.33728486 -0.21454883 C190.43270718 -0.21377686 192.5281386 -0.21814208 194.62353784 -0.22800708 C197.48330747 -0.24068141 200.34246609 -0.23487416 203.20223123 -0.22442508 C204.03229879 -0.23248148 204.86236635 -0.24053789 205.71758747 -0.24883842 C211.41046303 -0.20016231 215.50153742 0.91552429 220.00565225 4.6430676 C223.56532155 9.13949197 222.57525385 15.76834908 222.19315225 21.1430676 C221.35080387 25.67071163 220.12289921 30.04848667 218.83377725 34.46728635 C218.48812722 35.69413648 218.1424772 36.9209866 217.78635293 38.18501401 C217.05717127 40.76143469 216.32248139 43.33534447 215.57694131 45.90698361 C214.62918183 49.17705956 213.70122737 52.45233421 212.78010064 55.72999978 C211.88922479 58.89468388 210.98642028 62.05594182 210.08377725 65.21728635 C209.75444192 66.37999555 209.42510659 67.54270474 209.08579141 68.74064755 C205.53229217 80.97432181 201.85345118 90.64977317 190.19315225 97.1430676 C189.20315225 97.1430676 188.21315225 97.1430676 187.19315225 97.1430676 C187.19315225 97.8030676 187.19315225 98.4630676 187.19315225 99.1430676 C187.77065225 99.3699426 188.34815225 99.5968176 188.94315225 99.8305676 C192.09843201 101.67114746 193.37940425 102.90423189 195.19315225 106.1430676 C196.29799088 115.27176671 194.15955201 123.62283202 191.68533975 132.34228635 C191.31768851 133.67096648 190.95093635 134.99989568 190.58502847 136.32905698 C189.81994103 139.0942914 189.04384087 141.85611857 188.2595585 144.61596799 C187.26293168 148.12662034 186.2951131 151.6444654 185.33551484 155.16539407 C184.58537507 157.90474021 183.81970405 160.63956396 183.04950982 163.37333226 C182.51247943 165.29003617 181.98847784 167.21037555 181.46485025 169.13078427 C178.92827808 177.95061654 175.74748804 186.69508939 167.50565225 191.6430676 C166.75928506 192.1071301 166.01291787 192.5711926 165.2439335 193.0493176 C160.71337835 195.46561368 156.476611 195.28049887 151.48033792 195.26332211 C150.57939312 195.26417654 149.67844833 195.26503096 148.75020218 195.26591128 C145.71920267 195.26756365 142.68825802 195.26204864 139.65726358 195.25659299 C137.48936096 195.25631104 135.32145825 195.256469 133.15355569 195.25703549 C127.25721885 195.25732316 121.36090223 195.25143132 115.46457011 195.24446154 C109.3066089 195.23822296 103.14864726 195.2376238 96.99068338 195.23643613 C85.32475917 195.23332431 73.6588443 195.22511291 61.99292421 195.21508664 C48.7137854 195.20392089 35.4346472 195.19841388 22.15550464 195.1933912 C-5.16528467 195.18293019 -32.48606569 195.16533361 -59.80684775 195.1430676 C-59.50294929 193.41458613 -59.19609566 191.68662411 -58.88803977 189.95887876 C-58.71748604 188.9965637 -58.5469323 188.03424865 -58.37121028 187.04277253 C-57.49535669 182.54262086 -56.25779594 178.16720347 -54.9904415 173.76416135 C-54.70621833 172.75967954 -54.42199515 171.75519773 -54.12915915 170.72027707 C-53.50379109 168.51158827 -52.87618077 166.30353341 -52.24660605 164.09604001 C-50.65432649 158.51103776 -49.07680819 152.92186636 -47.49879569 147.33282018 C-47.10970384 145.95499964 -46.72042356 144.5772323 -46.33096427 143.19951558 C-40.73694628 123.41003742 -35.24695573 103.591567 -29.74891394 83.7752583 C-28.68195531 79.92996009 -27.61457802 76.08477816 -26.54716128 72.2396071 C-25.76992962 69.43971373 -24.99281406 66.63978815 -24.215707 63.8398602 C-23.20800388 60.20923877 -22.19983881 56.57874608 -21.19132346 52.94835019 C-18.9825201 44.99543339 -16.77683338 37.04172173 -14.58735961 29.08345819 C-13.65161007 25.68309931 -12.71351726 22.28338907 -11.77519721 18.88373876 C-11.33599511 17.28973492 -10.89800105 15.69539769 -10.46127051 14.10071492 C-9.86571729 11.92626059 -9.26618794 9.75294052 -8.66573447 7.57983518 C-8.32919852 6.35492871 -7.99266257 5.13002225 -7.64592856 3.86799741 C-6.21410025 -0.78189042 -4.61081963 0.02337535 0 0 Z M23.19315225 39.1430676 C22.71490815 40.56868045 22.23745774 41.99455957 21.7603367 43.42054868 C21.49437031 44.2145561 21.22840392 45.00856353 20.95437795 45.82663178 C19.13618743 51.35944766 17.6011343 56.98051215 16.00565225 62.5805676 C15.63402349 63.87161663 15.26227948 65.16263249 14.89041787 66.45361447 C14.54301553 67.66984494 14.19561319 68.88607541 13.8376835 70.13916135 C13.52162149 71.24445188 13.20555948 72.3497424 12.87991983 73.48852658 C12.10966301 76.00878583 12.10966301 76.00878583 12.19315225 78.1430676 C30.43906169 78.2365969 48.68490873 78.30708885 66.93100625 78.35031629 C75.40339826 78.37092293 83.87564113 78.3990071 92.34793741 78.44482541 C99.73422518 78.48475146 107.12040492 78.51051421 114.50679761 78.51942158 C118.41623005 78.52462661 122.32535348 78.53682033 126.23468667 78.56598783 C129.91846801 78.59324839 133.60181464 78.60149135 137.28568727 78.59549832 C139.27376377 78.59711404 141.26179352 78.61858098 143.2497471 78.64074826 C151.87856862 78.60112307 157.26852596 77.53251757 163.94315225 71.7680676 C169.67760528 65.0778724 172.68095486 59.11058974 172.44315225 50.2524426 C171.94434817 46.04378315 169.9504097 43.8548824 166.95200711 41.03641248 C163.71793989 38.81693921 162.12062504 38.64822353 158.23897439 38.66204953 C157.04570535 38.65655087 155.85243631 38.65105222 154.6230076 38.64538693 C152.67229097 38.66695859 152.67229097 38.66695859 150.68216592 38.68896604 C149.29228385 38.69009491 147.90239939 38.68945987 146.5125187 38.68719602 C142.74619622 38.68604947 138.98038444 38.7095486 135.21418053 38.73749185 C131.27574509 38.76251568 127.33729763 38.76484827 123.39879495 38.76959348 C115.94378757 38.7820204 108.48901512 38.81483806 101.03411114 38.85499144 C92.54567721 38.89971805 84.057232 38.92169841 75.56870955 38.94177318 C58.11005461 38.98357104 40.65162828 39.05391745 23.19315225 39.1430676 Z M1.19315225 117.1430676 C-0.23779047 122.05241894 -1.66175172 126.96372114 -3.07930869 131.87695432 C-3.56242407 133.54775537 -4.04743558 135.21800937 -4.53438681 136.8876965 C-5.23438264 139.28911075 -5.92751412 141.69241601 -6.61934775 144.0961926 C-6.83808554 144.84112973 -7.05682334 145.58606687 -7.28218955 146.35357785 C-8.26445542 149.7900261 -8.80684775 152.53645089 -8.80684775 156.1430676 C9.43906169 156.2365969 27.68490873 156.30708885 45.93100625 156.35031629 C54.40339826 156.37092293 62.87564113 156.3990071 71.34793741 156.44482541 C78.73422518 156.48475146 86.12040492 156.51051421 93.50679761 156.51942158 C97.41623005 156.52462661 101.32535348 156.53682033 105.23468667 156.56598783 C108.91846801 156.59324839 112.60181464 156.60149135 116.28568727 156.59549832 C118.27376377 156.59711404 120.26179352 156.61858098 122.2497471 156.64074826 C130.47211724 156.60298957 135.95721539 155.71175069 142.4001835 150.2836926 C148.18869425 143.4670522 150.85072714 137.53028363 150.54471475 128.47509885 C150.00388051 124.88756504 148.59837266 122.80831184 146.19315225 120.1430676 C142.43930939 117.44067095 139.87585747 116.76993027 135.27693826 116.78230405 C134.09208337 116.77818006 132.90722848 116.77405606 131.6864689 116.7698071 C130.39534189 116.78059293 129.10421487 116.79137876 127.7739628 116.80249143 C126.39393267 116.80333809 125.01390119 116.80286179 123.63387185 116.80116391 C119.89449892 116.80030406 116.15541537 116.81792801 112.41610962 116.83888578 C108.50568995 116.85765432 104.59526346 116.85940316 100.68480569 116.86296201 C93.28297114 116.87228196 85.8812697 116.89689504 78.47949374 116.92701048 C70.05150373 116.96055605 61.62350733 116.97704089 53.19546717 116.99209678 C35.86128524 117.02344467 18.52723282 117.07620417 1.19315225 117.1430676 Z " fill="#193282" transform="translate(345.8068477511406,21.856932401657104)"/>
<path d="M0 0 C1.35654374 -0.00384491 1.35654374 -0.00384491 2.7404924 -0.0077675 C5.75923114 -0.01269381 8.77746547 0.00376864 11.79615784 0.02018738 C13.96465035 0.0210339 16.13314373 0.02055802 18.30163574 0.01885986 C24.18127448 0.01799947 30.06072945 0.03563267 35.9403255 0.05658174 C42.08757771 0.07534095 48.23483418 0.07709839 54.3821106 0.08065796 C66.01960494 0.08998062 77.6570147 0.11459748 89.2944718 0.14470643 C102.54467243 0.17824348 115.79487712 0.19473471 129.04510963 0.20979273 C156.29884251 0.24114677 183.55250032 0.29391166 210.8061676 0.36076355 C210.17474693 2.89547478 209.54274457 5.43003865 208.91041565 7.96452332 C208.73361015 8.67452736 208.55680466 9.3845314 208.37464142 10.11605072 C206.85710828 16.19545716 205.26591073 22.25266734 203.6186676 28.29826355 C203.35892151 29.26699402 203.09917542 30.23572449 202.83155823 31.23381042 C202.58212463 32.15097839 202.33269104 33.06814636 202.07569885 34.0131073 C201.85502747 34.82771423 201.63435608 35.64232117 201.40699768 36.48161316 C200.8061676 38.36076355 200.8061676 38.36076355 199.8061676 39.36076355 C197.30203243 39.45849467 194.82550569 39.49072035 192.32092285 39.48101807 C191.52785927 39.48187249 190.73479569 39.48272692 189.91769987 39.48360723 C187.23979364 39.48526445 184.561949 39.47973674 181.88404846 39.47428894 C179.97259523 39.47400709 178.06114189 39.47416475 176.14968872 39.47473145 C170.94329301 39.47501952 165.73692012 39.46912116 160.53052974 39.46215749 C155.09592602 39.45592563 149.66132183 39.45532028 144.22671509 39.45413208 C133.92778003 39.45101827 123.62885552 39.44280421 113.32992512 39.43278259 C101.60824003 39.421623 89.88655445 39.41611139 78.16486537 39.41108716 C54.04529359 39.40062163 29.92573119 39.38302123 5.8061676 39.36076355 C5.70964905 39.90716492 5.61313049 40.45356628 5.51368713 41.01652527 C4.02390004 48.96367401 1.86516809 56.70849754 -0.3188324 64.48576355 C-0.69546628 65.83723363 -1.07177068 67.18879557 -1.44773865 68.54045105 C-2.35987962 71.81480324 -3.27531739 75.0881948 -4.1938324 78.36076355 C-3.27684507 78.36223011 -2.35985775 78.36369667 -1.41508293 78.36520767 C20.89383665 78.40225396 43.20260403 78.4612398 65.51140022 78.54466629 C76.29976273 78.58448123 87.08805204 78.61686127 97.8764801 78.63175964 C107.27931646 78.64476341 116.68199191 78.67169551 126.08473766 78.71537662 C131.06377833 78.73802006 136.04262034 78.7536725 141.02171707 78.7526474 C145.70855023 78.75190249 150.39494371 78.7697851 155.08166313 78.80193138 C156.8013337 78.81044754 158.52105348 78.81216867 160.24073601 78.80656624 C162.5907073 78.79993041 164.939278 78.81783502 167.28910828 78.84178162 C168.60358507 78.84546879 169.91806187 78.84915596 171.27237129 78.85295486 C176.24798314 79.56795332 179.33650505 81.74413474 182.6811676 85.42326355 C186.56566212 95.56611035 182.17148804 106.80497686 179.3530426 116.74357605 C178.89076549 118.40994592 178.42954178 120.07660834 177.96931458 121.74354553 C177.00618081 125.22050763 176.0336967 128.69466242 175.0537262 132.16691589 C173.80421745 136.59531741 172.57335893 141.02862868 171.34887314 145.46400642 C170.39878894 148.90072438 169.44135779 152.33536014 168.48149872 155.76935959 C168.02539205 157.40261329 167.57092579 159.03632609 167.11820221 160.67052078 C159.98228285 186.35856277 159.98228285 186.35856277 149.09913635 193.2474823 C142.99405669 196.21161808 137.3955598 196.64842789 130.72622681 196.60127258 C129.83411497 196.60298143 128.94200313 196.60469028 128.02285761 196.60645092 C125.0456783 196.60973452 122.0687264 196.59876072 119.09156799 196.58781433 C116.95263169 196.58724997 114.81369499 196.58756726 112.67475891 196.58869934 C106.87573758 196.58927289 101.07679908 196.57751807 95.27779698 196.56355143 C89.21462121 196.55104457 83.15144352 196.5498736 77.08825684 196.54750061 C65.61015665 196.54128572 54.13209459 196.52487475 42.65401119 196.50480163 C29.585179 196.48244294 16.51634499 196.47144927 3.44749844 196.46141076 C-23.4329663 196.44050856 -50.31339721 196.40533236 -77.1938324 196.36076355 C-74.56184637 183.20083343 -70.76274531 170.29807284 -67.1938324 157.36076355 C-2.8438324 157.36076355 61.5061676 157.36076355 127.8061676 157.36076355 C128.1361676 155.05076355 128.4661676 152.74076355 128.8061676 150.36076355 C129.45609336 147.7794658 130.13471181 145.23225285 130.87257385 142.6771698 C131.07092331 141.97680099 131.26927277 141.27643219 131.47363281 140.55484009 C132.10106364 138.34308038 132.73475062 136.13317192 133.3686676 133.92326355 C133.79812082 132.41361642 134.22716126 130.9038518 134.65577698 129.39396667 C135.70114225 125.71485744 136.75211774 122.03739365 137.8061676 118.36076355 C136.43841722 118.36491162 136.43841722 118.36491162 135.04303551 118.36914349 C112.85940615 118.43538725 90.67579384 118.48503633 68.49208641 118.51620007 C57.76422448 118.53167106 47.03642857 118.55276507 36.30860901 118.58708191 C26.95859376 118.61697709 17.60862631 118.63633686 8.25856459 118.64302903 C3.30745694 118.64694108 -1.64351395 118.65613984 -6.59457779 118.67795372 C-11.25501258 118.6983207 -15.9152543 118.7045969 -20.57572937 118.70008659 C-22.28575566 118.7009117 -23.99578842 118.7068761 -25.70577621 118.71837997 C-28.04233305 118.7333276 -30.37816294 118.72970919 -32.71473694 118.7215271 C-34.02183939 118.72429248 -35.32894184 118.72705786 -36.67565346 118.72990704 C-41.78470514 118.19384188 -45.02799604 116.62112718 -48.5063324 112.86076355 C-51.35619555 108.63874406 -51.42377455 105.36236989 -51.1938324 100.36076355 C-50.68513281 97.90715395 -50.08729622 95.47102563 -49.42137146 93.05534363 C-49.23272522 92.3615863 -49.04407898 91.66782898 -48.84971619 90.95304871 C-48.22824054 88.6763347 -47.59409368 86.40337207 -46.9594574 84.1302948 C-46.51994879 82.53255758 -46.08113815 80.9346282 -45.64299011 79.33651733 C-44.72365135 75.99044763 -43.79848178 72.64606737 -42.86863708 69.30290222 C-41.68589731 65.05010211 -40.51367365 60.79449967 -39.34538651 56.53770924 C-38.43877761 53.23635079 -37.52850725 49.93601124 -36.61698151 46.63600731 C-36.1842316 45.06913986 -35.7521111 43.50209841 -35.32067108 41.93486977 C-26.61583524 10.36764682 -26.61583524 10.36764682 -16.1938324 3.36076355 C-10.60171038 0.49679512 -6.23234243 -0.06517503 0 0 Z " fill="#193282" transform="translate(891.1938323974609,22.639236450195313)"/>
<path d="M0 0 C0.83207503 0.00086648 1.66415007 0.00173296 2.52143949 0.0026257 C3.3986967 -0.00034542 4.27595391 -0.00331654 5.17979467 -0.0063777 C8.14304587 -0.01510489 11.10625687 -0.01657634 14.06951994 -0.01806521 C16.18473994 -0.0226907 18.29995911 -0.02771499 20.41517729 -0.03311038 C26.17993387 -0.04626592 31.94467878 -0.05268594 37.70944804 -0.05712104 C41.30946871 -0.06004784 44.90948616 -0.06415198 48.50950521 -0.06862521 C59.76809213 -0.08231098 71.02667174 -0.09197127 82.2852664 -0.0958271 C95.28988884 -0.10030495 108.29440602 -0.11783568 121.29899645 -0.1468277 C131.34322207 -0.16844357 141.38741809 -0.1785314 151.43166673 -0.17986822 C157.43356162 -0.18091669 163.43535771 -0.18683301 169.43722814 -0.20468783 C175.0867189 -0.22116588 180.73603659 -0.22332521 186.38554281 -0.21454883 C188.4575493 -0.2137782 190.52956507 -0.21812447 192.60154814 -0.22800708 C195.43434456 -0.24072406 198.26652791 -0.23485086 201.09932035 -0.22442508 C202.32401032 -0.23650968 202.32401032 -0.23650968 203.57344151 -0.24883842 C209.0952412 -0.20144151 213.22026809 0.8242907 218.25482267 3.1430676 C221.93832321 7.2988118 222.82164972 10.68310765 223.25482267 16.1430676 C222.63115019 19.75097775 222.63115019 19.75097775 221.59051603 23.5571301 C221.31332054 24.59397443 221.31332054 24.59397443 221.03052515 25.65176511 C220.64207204 27.09997249 220.24792185 28.54666297 219.84827894 29.99182248 C219.28118328 32.0475119 218.73204391 34.10697406 218.19015592 36.16943479 C215.88581271 44.92466165 213.49284217 53.65649338 211.11004728 62.39062619 C210.24308832 65.57141395 209.38348201 68.75405615 208.52996916 71.93847775 C207.48656246 75.83104196 206.43027412 79.71989687 205.36491293 83.60650754 C204.9653839 85.0723604 204.57028168 86.53942807 204.17993444 88.00775266 C199.3038279 106.31718279 199.3038279 106.31718279 191.87982267 112.4555676 C191.3564633 112.90545041 190.83310392 113.35533322 190.29388517 113.81884885 C184.81833013 117.37481276 180.0582361 118.58708968 173.57954496 118.50383115 C172.83852456 118.50639442 172.09750416 118.5089577 171.3340286 118.51159865 C168.86802864 118.51651307 166.40265033 118.50008297 163.93670744 118.48364377 C162.16229861 118.48279699 160.38788873 118.48327364 158.61348051 118.48497128 C153.80817057 118.48583067 149.0030861 118.46821404 144.19782847 118.44724941 C139.17166712 118.4284732 134.14550038 118.42673142 129.11930937 118.42317319 C119.60676392 118.41385551 110.09432212 118.38924544 100.58182228 118.35912472 C89.74995804 118.32557212 78.9180888 118.30909253 68.08618551 118.29403841 C45.80900676 118.26269567 23.53192125 118.20994052 1.25482267 118.1430676 C0.98944574 119.28290066 0.72406881 120.42273372 0.45065016 121.59710717 C0.09407562 123.12224322 -0.26256525 124.64736377 -0.6192618 126.17247128 C-0.7931625 126.92020228 -0.9670632 127.66793327 -1.14623362 128.43832278 C-2.85454954 135.73134475 -4.82320056 142.93702643 -6.85455233 150.14697385 C-7.23028385 151.49022679 -7.60570432 152.83356677 -7.98083407 154.17698789 C-8.95095155 157.64807311 -9.9251789 161.11799054 -10.90038973 164.58764768 C-11.90201271 168.15422718 -12.89961299 171.72193163 -13.89752108 175.28955197 C-15.84249466 182.24192648 -17.79397107 189.19242783 -19.74517733 196.1430676 C-32.94517733 196.1430676 -46.14517733 196.1430676 -59.74517733 196.1430676 C-58.51102874 189.35525033 -57.27692708 182.90355087 -55.41021639 176.31713986 C-55.07310641 175.1047086 -55.07310641 175.1047086 -54.72918612 173.86778378 C-53.99452162 171.23031382 -53.25280888 168.59488675 -52.51080233 165.95947385 C-51.98956875 164.09507298 -51.46872249 162.23056378 -50.94824129 160.36595273 C-49.85852911 156.46601015 -48.76556606 152.5669994 -47.66998202 148.66870236 C-46.28263279 143.73203116 -44.90118853 138.79373403 -43.52197558 133.85478425 C-42.44594663 130.00270672 -41.36778969 126.15122742 -40.28893191 122.2999413 C-39.77994682 120.48283519 -39.27133089 118.66562562 -38.76312929 116.84830022 C-38.52213251 115.9872008 -38.28113573 115.12610139 -38.03283602 114.23890805 C-37.82439184 113.49361372 -37.61594767 112.74831939 -37.401187 111.98044038 C-34.29966648 100.99098931 -31.02817044 90.08637796 -27.74517733 79.1430676 C36.27482267 79.1430676 100.29482267 79.1430676 166.25482267 79.1430676 C166.91482267 75.8430676 167.57482267 72.5430676 168.25482267 69.1430676 C170.89482267 59.5730676 173.53482267 50.0030676 176.25482267 40.1430676 C112.56482267 39.8130676 48.87482267 39.4830676 -16.74517733 39.1430676 C-12.02076788 20.2454298 -12.02076788 20.2454298 -9.55767733 11.2055676 C-9.29793123 10.23683713 -9.03818514 9.26810666 -8.77056795 8.27002072 C-8.52113436 7.35285275 -8.27170077 6.43568479 -8.01470858 5.49072385 C-7.79403719 4.67611691 -7.57336581 3.86150998 -7.34600741 3.02221799 C-6.09626973 -0.88644957 -3.72241405 0.0190779 0 0 Z " fill="#193282" transform="translate(612.7451773285866,21.856932401657104)"/>
<path d="M0 0 C2.59687973 3.21474286 4.39157379 6.56669595 6.21484375 10.26953125 C6.51185684 10.868759 6.80886993 11.46798676 7.11488342 12.08537292 C8.05960866 13.99253961 8.99893046 15.9022974 9.9375 17.8125 C14.46351068 27.15685089 14.46351068 27.15685089 19.44140625 36.26171875 C21 39 21 39 21 41 C21.66 41 22.32 41 23 41 C23.12383057 40.00726074 23.24766113 39.01452148 23.37524414 37.99169922 C23.9534523 33.96023847 24.92939049 30.05938122 25.99609375 26.1328125 C26.18969986 25.41261932 26.38330597 24.69242615 26.58277893 23.95040894 C26.98991826 22.44225565 27.39928533 20.93470214 27.81079102 19.42773438 C28.44076771 17.11299335 29.05752535 14.79497659 29.67382812 12.4765625 C30.07211793 11.0075957 30.47117872 9.53883768 30.87109375 8.0703125 C31.05449814 7.37559845 31.23790253 6.6808844 31.42686462 5.96511841 C31.8905088 4.29204863 32.43795062 2.64262866 33 1 C33.66 0.67 34.32 0.34 35 0 C35.43231934 0.86987549 35.86463867 1.73975098 36.31005859 2.63598633 C37.96669508 5.96782211 39.62628422 9.29818072 41.28662109 12.62817383 C41.99506784 14.0499937 42.70278825 15.47217579 43.40966797 16.89477539 C47.45095595 25.02649435 51.56127054 33.1143882 55.80859375 41.140625 C61.04705212 51.04492526 66.16467486 61.00778398 71.20874023 71.01245117 C72.2094051 72.99180824 73.21508697 74.96863561 74.2253418 76.94311523 C75.70726814 79.84054244 77.17362764 82.74536967 78.63671875 85.65234375 C79.09173264 86.53454086 79.54674652 87.41673798 80.01554871 88.32566833 C80.42380386 89.14495316 80.83205902 89.96423798 81.25268555 90.80834961 C81.61557175 91.52381454 81.97845795 92.23927948 82.3523407 92.97642517 C83.13191688 95.41216681 82.88317517 96.62826484 82 99 C80.82006836 100.53637695 80.82006836 100.53637695 79.33984375 101.98828125 C78.79755127 102.52606201 78.25525879 103.06384277 77.6965332 103.61791992 C77.11605225 104.17713135 76.53557129 104.73634277 75.9375 105.3125 C75.34477295 105.89427002 74.7520459 106.47604004 74.14135742 107.07543945 C70.52157631 110.60436806 66.81223509 113.99088265 62.95703125 117.26171875 C59.62956727 120.21725063 56.56035951 123.43281724 53.43359375 126.59765625 C51.36757635 128.63714373 49.26994451 130.555078 47.0625 132.4375 C43.71074927 135.30172335 40.59443244 138.36333716 37.5 141.5 C33.81005412 145.24030338 30.02496302 148.7823935 26.02734375 152.19140625 C23.58571366 154.36958492 21.29951968 156.67248008 19 159 C16.10408042 161.93118191 13.19757429 164.76403174 10.0625 167.4375 C6.19777163 170.74008606 2.64651769 174.32396169 -0.92016602 177.93969727 C-4.24522281 181.29258365 -7.6856962 184.43839943 -11.28125 187.49609375 C-12.8986582 188.91132592 -14.38887375 190.38657173 -15.875 191.9375 C-18 194 -18 194 -20 194 C-16.89927503 181.26878805 -13.48600636 168.63066031 -10 156 C-10.33 155.67 -10.66 155.34 -11 155 C-11.4846875 155.49628906 -11.969375 155.99257812 -12.46875 156.50390625 C-15.81954987 159.89981304 -19.18178433 163.21549201 -22.8125 166.3125 C-26.71470941 169.66272694 -30.31330858 173.28327161 -33.921875 176.94140625 C-37.22487367 180.27200658 -40.64277704 183.39306406 -44.21484375 186.4296875 C-46.02704569 188.02379074 -47.69940209 189.70133831 -49.375 191.4375 C-52 194 -52 194 -54 194 C-51.25641836 182.80523082 -48.31426032 171.67796496 -45.23828125 160.5703125 C-44.77375162 158.88729017 -44.30938069 157.20422403 -43.84515381 155.52111816 C-42.5962984 150.99542423 -41.34492408 146.47043068 -40.09285355 141.94562531 C-39.30873786 139.11140155 -38.52522136 136.27701285 -37.74191284 133.44256592 C-34.70092709 122.43861261 -31.65686674 111.43551345 -28.61077023 100.43297386 C-26.55312972 93.00009395 -24.49776685 85.56658659 -22.44335938 78.1328125 C-19.82480878 68.65805357 -17.20358274 59.18403955 -14.57905102 49.71093559 C-13.18161812 44.66693752 -11.78517937 39.62266967 -10.39126587 34.57769775 C-9.08188589 29.83911682 -7.76928463 25.10144024 -6.45413971 20.36445618 C-5.96991962 18.61824975 -5.48685515 16.87172241 -5.00499725 15.12486267 C-4.34894948 12.74724828 -3.68881924 10.370806 -3.02758789 7.99462891 C-2.83506597 7.29314287 -2.64254404 6.59165684 -2.44418812 5.86891365 C-1.11414373 1.11414373 -1.11414373 1.11414373 0 0 Z " fill="#F37920" transform="translate(1139,24)"/>
<path d="M0 0 C2.48884663 3.10006106 4.25112684 6.28390348 6.00390625 9.84765625 C6.58076172 11.01232422 7.15761719 12.17699219 7.75195312 13.37695312 C8.35580199 14.60530499 8.95931819 15.83382044 9.5625 17.0625 C13.51951896 25.09726054 17.54447455 33.08370871 21.734375 41 C26.99762478 50.95119023 32.14079561 60.96042061 37.20874023 71.01245117 C38.2094051 72.99180824 39.21508697 74.96863561 40.2253418 76.94311523 C41.70726814 79.84054244 43.17362764 82.74536967 44.63671875 85.65234375 C45.09173264 86.53454086 45.54674652 87.41673798 46.01554871 88.32566833 C46.42380386 89.14495316 46.83205902 89.96423798 47.25268555 90.80834961 C47.61557175 91.52381454 47.97845795 92.23927948 48.3523407 92.97642517 C49.13191688 95.41216681 48.88317517 96.62826484 48 99 C46.82006836 100.53637695 46.82006836 100.53637695 45.33984375 101.98828125 C44.79755127 102.52606201 44.25525879 103.06384277 43.6965332 103.61791992 C43.11605225 104.17713135 42.53557129 104.73634277 41.9375 105.3125 C41.04840942 106.18515503 41.04840942 106.18515503 40.14135742 107.07543945 C36.52157631 110.60436806 32.81223509 113.99088265 28.95703125 117.26171875 C25.62956727 120.21725063 22.56035951 123.43281724 19.43359375 126.59765625 C17.36757635 128.63714373 15.26994451 130.555078 13.0625 132.4375 C9.71074927 135.30172335 6.59443244 138.36333716 3.5 141.5 C-0.18994588 145.24030338 -3.97503698 148.7823935 -7.97265625 152.19140625 C-10.41428634 154.36958492 -12.70048032 156.67248008 -15 159 C-17.89591958 161.93118191 -20.80242571 164.76403174 -23.9375 167.4375 C-27.80222837 170.74008606 -31.35348231 174.32396169 -34.92016602 177.93969727 C-38.24522281 181.29258365 -41.6856962 184.43839943 -45.28125 187.49609375 C-46.8986582 188.91132592 -48.38887375 190.38657173 -49.875 191.9375 C-52 194 -52 194 -54 194 C-52.96338157 189.60801137 -51.86664021 185.23429451 -50.73632812 180.86572266 C-50.20081205 178.7815424 -49.67471945 176.69493387 -49.15429688 174.60693359 C-48.21583011 170.87548215 -47.23598528 167.15665192 -46.25 163.4375 C-45.95158203 162.22481445 -45.65316406 161.01212891 -45.34570312 159.76269531 C-43.17731575 151.77868415 -40.66926951 147.79761991 -34 143 C-32.31384218 141.35305515 -30.64429829 139.68873879 -29 138 C-26.10408042 135.06881809 -23.19757429 132.23596826 -20.0625 129.5625 C-16.71074927 126.69827665 -13.59443244 123.63666284 -10.5 120.5 C-6.81842758 116.76818435 -3.04730902 113.22843519 0.94921875 109.8359375 C4.43793741 106.71270365 7.65207818 103.31339867 10.8984375 99.94140625 C13 98 13 98 15 98 C14.65730072 97.34569 14.31460144 96.69138 13.96151733 96.01724243 C10.72441416 89.82447955 7.51499079 83.61832153 4.33528709 77.3959446 C2.6998675 74.19792691 1.05454166 71.00591646 -0.61523438 67.82568359 C-2.22873107 64.75169928 -3.81382139 61.66452035 -5.3808403 58.5666008 C-6.2715813 56.82327605 -7.19055914 55.09447121 -8.11001587 53.36611938 C-11.21613242 47.15996071 -12.76681401 43.06213855 -10.7779541 36.28405762 C-10.52122925 35.5303186 -10.26450439 34.77657959 -10 34 C-9.64564802 32.61927661 -9.29945214 31.23642643 -8.96264648 29.85131836 C-8.60237408 28.51319156 -8.23845985 27.17604048 -7.87109375 25.83984375 C-7.67653091 25.12389542 -7.48196808 24.40794708 -7.2815094 23.67030334 C-6.87561252 22.18022098 -6.46804851 20.69059176 -6.05883789 19.20141602 C-5.43059297 16.91233344 -4.80973159 14.62133071 -4.18945312 12.33007812 C-3.79210152 10.87488119 -3.39433084 9.41979861 -2.99609375 7.96484375 C-2.81066513 7.27954086 -2.62523651 6.59423798 -2.43418884 5.88816833 C-1.11500094 1.11500094 -1.11500094 1.11500094 0 0 Z " fill="#008B43" transform="translate(1173,24)"/>
<path d="M0 0 C0.66 0 1.32 0 2 0 C4.475 12.375 4.475 12.375 7 25 C8.485 22.916875 9.97 20.83375 11.5 18.6875 C12.4162775 17.40727346 13.33287659 16.12727693 14.25 14.84765625 C15.96962857 12.4465408 17.67830158 10.03845617 19.375 7.62109375 C20.426875 6.13802734 20.426875 6.13802734 21.5 4.625 C22.1290625 3.73039063 22.758125 2.83578125 23.40625 1.9140625 C23.9321875 1.28242188 24.458125 0.65078125 25 0 C25.66 0 26.32 0 27 0 C26.85935814 4.43768016 26.71152566 8.8750941 26.5625 13.3125 C26.52318359 14.55580078 26.48386719 15.79910156 26.44335938 17.08007812 C26.19298646 24.41793056 25.76882404 31.6975866 25 39 C23.02 39 21.04 39 19 39 C18.67 33.39 18.34 27.78 18 22 C16.04016636 24.43630696 14.08208225 26.87398447 12.125 29.3125 C11.56941406 30.00279297 11.01382812 30.69308594 10.44140625 31.40429688 C9.63896484 32.40493164 9.63896484 32.40493164 8.8203125 33.42578125 C8.08192139 34.34484253 8.08192139 34.34484253 7.32861328 35.2824707 C6.15106276 36.80471765 5.06754369 38.39868446 4 40 C3.34 40 2.68 40 2 40 C0.68 33.73 -0.64 27.46 -2 21 C-4.71967771 24.62623694 -6.71967437 28.20753565 -8.6875 32.25 C-9.16799805 33.22453125 -9.16799805 33.22453125 -9.65820312 34.21875 C-10.44247141 35.81069757 -11.22174255 37.40510529 -12 39 C-14.31 39 -16.62 39 -19 39 C-12.86404755 25.89811118 -6.52342641 12.91330235 0 0 Z " fill="#3A3A3C" transform="translate(1141,246)"/>
<path d="M0 0 C0.66 0 1.32 0 2 0 C4.475 12.375 4.475 12.375 7 25 C8.485 22.916875 9.97 20.83375 11.5 18.6875 C12.4162775 17.40727346 13.33287659 16.12727693 14.25 14.84765625 C15.96962857 12.4465408 17.67830158 10.03845617 19.375 7.62109375 C20.426875 6.13802734 20.426875 6.13802734 21.5 4.625 C22.1290625 3.73039063 22.758125 2.83578125 23.40625 1.9140625 C23.9321875 1.28242188 24.458125 0.65078125 25 0 C25.66 0 26.32 0 27 0 C26.85935814 4.43768016 26.71152566 8.8750941 26.5625 13.3125 C26.52318359 14.55580078 26.48386719 15.79910156 26.44335938 17.08007812 C26.19298646 24.41793056 25.76882404 31.6975866 25 39 C23.02 39 21.04 39 19 39 C18.67 33.39 18.34 27.78 18 22 C16.04016636 24.43630696 14.08208225 26.87398447 12.125 29.3125 C11.56941406 30.00279297 11.01382813 30.69308594 10.44140625 31.40429688 C9.63896484 32.40493164 9.63896484 32.40493164 8.8203125 33.42578125 C8.08192139 34.34484253 8.08192139 34.34484253 7.32861328 35.2824707 C6.15106276 36.80471765 5.06754369 38.39868446 4 40 C3.34 40 2.68 40 2 40 C0.68 33.73 -0.64 27.46 -2 21 C-4.71967771 24.62623694 -6.71967437 28.20753565 -8.6875 32.25 C-9.16799805 33.22453125 -9.16799805 33.22453125 -9.65820312 34.21875 C-10.44247141 35.81069757 -11.22174255 37.40510529 -12 39 C-14.31 39 -16.62 39 -19 39 C-12.86404755 25.89811118 -6.52342641 12.91330235 0 0 Z " fill="#3A3A3C" transform="translate(673,246)"/>
<path d="M0 0 C3.51764783 1.44479966 5.17266977 3.18210544 7.3828125 6.24609375 C7.99253906 7.08333984 8.60226562 7.92058594 9.23046875 8.78320312 C9.85566406 9.65912109 10.48085938 10.53503906 11.125 11.4375 C11.75792969 12.30955078 12.39085937 13.18160156 13.04296875 14.08007812 C15.41461112 17.35556297 17.75666112 20.63499168 20 24 C22.31 16.41 24.62 8.82 27 1 C29.31 1 31.62 1 34 1 C30.89927503 13.73121195 27.48600636 26.36933969 24 39 C23.01 39 22.02 39 21 39 C19.0985811 36.87470917 17.38984965 34.77614621 15.6875 32.5 C15.19983154 31.86304199 14.71216309 31.22608398 14.2097168 30.56982422 C12.79698419 28.72018096 11.39695728 26.86157262 10 25 C9.32195313 24.10539062 8.64390625 23.21078125 7.9453125 22.2890625 C6.62055516 20.53328364 5.30834924 18.76803951 4 17 C2.54649178 19.73410841 1.52145267 22.34201646 0.7109375 25.328125 C0.49179687 26.12734375 0.27265625 26.9265625 0.046875 27.75 C-0.17484375 28.575 -0.3965625 29.4 -0.625 30.25 C-0.85445312 31.09046875 -1.08390625 31.9309375 -1.3203125 32.796875 C-1.88395525 34.86356509 -2.44248162 36.93164936 -3 39 C-5.31 39 -7.62 39 -10 39 C-8.49490723 30.47951656 -6.21167328 22.19593662 -3.875 13.875 C-3.49836612 12.52352992 -3.12206172 11.17196798 -2.74609375 9.8203125 C-1.83395278 6.54596031 -0.918515 3.27256875 0 0 Z " fill="#3A3A3C" transform="translate(774,246)"/>
<path d="M0 0 C1.23234375 -0.01417969 2.4646875 -0.02835938 3.734375 -0.04296875 C7.08560617 0.17672307 9.29740966 0.62918843 12.25 2.1875 C13.84668811 5.38087623 13.76992723 8.7213185 13.25 12.1875 C11.1875 15 11.1875 15 9.25 17.1875 C9.58 18.1775 9.91 19.1675 10.25 20.1875 C10.75171564 26.30843081 10.33833623 29.3042095 6.25 34.1875 C1.49888705 38.63208953 -3.81876723 38.30835264 -10.0625 38.25 C-11.31675781 38.24097656 -12.57101562 38.23195313 -13.86328125 38.22265625 C-14.81589844 38.21105469 -15.76851563 38.19945312 -16.75 38.1875 C-16.16240981 30.98033903 -14.26254064 24.18620559 -12.31152344 17.2487793 C-11.74499201 15.23217373 -11.18831298 13.21302831 -10.6328125 11.19335938 C-7.52841293 0.03904778 -7.52841293 0.03904778 0 0 Z M-1.75 6.1875 C-3.06626692 9.80723402 -3.75 12.28317131 -3.75 16.1875 C1.19415148 15.91173234 1.19415148 15.91173234 5.25 13.375 C6.46255387 11.24023445 6.46255387 11.24023445 5.9375 8.9375 C5.710625 8.36 5.48375 7.7825 5.25 7.1875 C2.94 6.8575 0.63 6.5275 -1.75 6.1875 Z M-5.75 21.1875 C-7.235 26.6325 -7.235 26.6325 -8.75 32.1875 C-3.10998364 31.88396415 -3.10998364 31.88396415 1.8125 29.4375 C3.51208957 27.25415387 3.51208957 27.25415387 3.125 24.5 C2.48669149 22.02322904 2.48669149 22.02322904 0.25 21.1875 C-1.74960012 21.147508 -3.75047242 21.14403201 -5.75 21.1875 Z " fill="#3A3A3C" transform="translate(341.75,246.8125)"/>
<path d="M0 0 C2.22889496 -0.05428973 4.45817471 -0.09292338 6.6875 -0.125 C8.54955078 -0.15980469 8.54955078 -0.15980469 10.44921875 -0.1953125 C13.83709655 -0.00896059 16.02229376 0.41999261 19 2 C20.59668811 5.19337623 20.51992723 8.5338185 20 12 C17.9375 14.8125 17.9375 14.8125 16 17 C16.33 17.99 16.66 18.98 17 20 C17.34530278 25.35219303 17.48807959 28.66997016 14 33 C8.58920287 38.12601834 3.92809972 38.13016916 -3.3125 38.0625 C-4.56675781 38.05347656 -5.82101563 38.04445313 -7.11328125 38.03515625 C-8.06589844 38.02355469 -9.01851562 38.01195312 -10 38 C-9.37593437 30.25768584 -7.17578168 23.0576528 -5 15.625 C-4.62709848 14.32957254 -4.25469865 13.03400056 -3.8828125 11.73828125 C-1.15472274 2.30944549 -1.15472274 2.30944549 0 0 Z M5 6 C4.34 9.3 3.68 12.6 3 16 C7.94415148 15.72423234 7.94415148 15.72423234 12 13.1875 C13.21255387 11.05273445 13.21255387 11.05273445 12.6875 8.75 C12.460625 8.1725 12.23375 7.595 12 7 C9.69 6.67 7.38 6.34 5 6 Z M1 21 C-0.485 26.445 -0.485 26.445 -2 32 C3.64001636 31.69646415 3.64001636 31.69646415 8.5625 29.25 C10.26208957 27.06665387 10.26208957 27.06665387 9.875 24.3125 C9.23669149 21.83572904 9.23669149 21.83572904 7 21 C5.00039988 20.960008 2.99952758 20.95653201 1 21 Z " fill="#3A3A3C" transform="translate(10,247)"/>
<path d="M0 0 C1.134375 0.020625 2.26875 0.04125 3.4375 0.0625 C2.4475 4.3525 1.4575 8.6425 0.4375 13.0625 C5.7175 13.3925 10.9975 13.7225 16.4375 14.0625 C16.746875 12.495 17.05625 10.9275 17.375 9.3125 C17.98817798 6.20573156 18.64247132 3.12801599 19.4375 0.0625 C21.7475 0.0625 24.0575 0.0625 26.4375 0.0625 C25.84990981 7.26966097 23.95004064 14.06379441 21.99902344 21.0012207 C21.43249201 23.01782627 20.87581298 25.03697169 20.3203125 27.05664062 C17.57335283 36.92664717 17.57335283 36.92664717 16.4375 38.0625 C14.10452567 38.10342937 11.77044775 38.10491723 9.4375 38.0625 C10.08047504 35.43676939 10.72674411 32.81192697 11.375 30.1875 C11.55740234 29.44113281 11.73980469 28.69476563 11.92773438 27.92578125 C13.32421875 22.2890625 13.32421875 22.2890625 14.4375 20.0625 C8.8275 20.0625 3.2175 20.0625 -2.5625 20.0625 C-2.85125 21.733125 -3.14 23.40375 -3.4375 25.125 C-4.23683275 29.54416818 -5.22926095 33.77708876 -6.5625 38.0625 C-8.8725 38.0625 -11.1825 38.0625 -13.5625 38.0625 C-12.97490981 30.85533903 -11.07504064 24.06120559 -9.12402344 17.1237793 C-8.55749201 15.10717373 -8.00081298 13.08802831 -7.4453125 11.06835938 C-4.38625137 0.07695178 -4.38625137 0.07695178 0 0 Z " fill="#3A3A3C" transform="translate(60.5625,246.9375)"/>
<path d="M0 0 C1.04671875 -0.01417969 2.0934375 -0.02835938 3.171875 -0.04296875 C7.42453365 0.27544097 10.2209447 1.1584447 13.25 4.1875 C13.71644438 8.85194383 13.73190587 11.22368826 11.625 15.4375 C9.00306644 18.47342307 6.68082112 20.16019661 3.25 22.1875 C3.683125 23.09113281 4.11625 23.99476563 4.5625 24.92578125 C5.119375 26.10527344 5.67625 27.28476562 6.25 28.5 C6.806875 29.67175781 7.36375 30.84351563 7.9375 32.05078125 C9.25 35.1875 9.25 35.1875 9.25 38.1875 C6.94 38.1875 4.63 38.1875 2.25 38.1875 C-0.06 33.5675 -2.37 28.9475 -4.75 24.1875 C-5.20375 25.569375 -5.6575 26.95125 -6.125 28.375 C-7.22975443 31.69449909 -8.39632091 34.95949601 -9.75 38.1875 C-11.73 38.1875 -13.71 38.1875 -15.75 38.1875 C-15.16240981 30.98033903 -13.26254064 24.18620559 -11.31152344 17.2487793 C-10.74499201 15.23217373 -10.18831298 13.21302831 -9.6328125 11.19335938 C-6.5286247 0.03980869 -6.5286247 0.03980869 0 0 Z M-0.75 6.1875 C-2.06626692 9.80723402 -2.75 12.28317131 -2.75 16.1875 C1.64950443 15.81468073 1.64950443 15.81468073 5.1875 13.375 C6.47117007 11.24840703 6.47117007 11.24840703 5.9375 8.9375 C5.710625 8.36 5.48375 7.7825 5.25 7.1875 C2.28 6.6925 2.28 6.6925 -0.75 6.1875 Z " fill="#3A3A3C" transform="translate(169.75,246.8125)"/>
<path d="M0 0 C7.26 0 14.52 0 22 0 C21.34 1.98 20.68 3.96 20 6 C15.38 6 10.76 6 6 6 C5.34 8.64 4.68 11.28 4 14 C8.62 14 13.24 14 18 14 C17.34 16.31 16.68 18.62 16 21 C11.38 21.33 6.76 21.66 2 22 C1.01 24.97 0.02 27.94 -1 31 C3.62 31 8.24 31 13 31 C12.67 33.31 12.34 35.62 12 38 C4.74 38 -2.52 38 -10 38 C-7.10117737 25.17828453 -3.67809035 12.62253734 0 0 Z " fill="#3A3A3C" transform="translate(1091,247)"/>
<path d="M0 0 C7.26 0 14.52 0 22 0 C21.67 1.98 21.34 3.96 21 6 C16.05 6 11.1 6 6 6 C5.34 8.64 4.68 11.28 4 14 C8.62 14 13.24 14 18 14 C17.34 16.31 16.68 18.62 16 21 C11.38 21.33 6.76 21.66 2 22 C1.34 24.64 0.68 27.28 0 30 C4.29 30.33 8.58 30.66 13 31 C12.67 33.31 12.34 35.62 12 38 C4.74 38 -2.52 38 -10 38 C-6.87765564 25.27044222 -3.47552159 12.63826033 0 0 Z " fill="#3A3A3C" transform="translate(729,247)"/>
<path d="M0 0 C0.66 0 1.32 0 2 0 C3.00050349 5.07132109 3.99732158 10.14334731 4.99072266 15.21606445 C5.32922646 16.94184967 5.66873871 18.66743741 6.00927734 20.39282227 C6.49841967 22.87204655 6.98393788 25.35195705 7.46875 27.83203125 C7.62186646 28.60400345 7.77498291 29.37597565 7.93273926 30.17134094 C8.51489512 33.16434412 9 35.94281803 9 39 C6.69 39 4.38 39 2 39 C0 32.375 0 32.375 0 29 C-4.47826856 28.83164404 -8.63544383 28.92549027 -13 30 C-15.28385355 32.17314611 -16.75581287 34.37371236 -18.43359375 37.03125 C-20 39 -20 39 -23.9375 39.5625 C-25.4534375 39.2840625 -25.4534375 39.2840625 -27 39 C-25.43997227 34.21044119 -22.73234605 30.73744368 -19.6875 26.8125 C-16.18525034 22.23786862 -12.7232904 17.6467012 -9.38671875 12.94921875 C-8.79995361 12.12381592 -8.21318848 11.29841309 -7.60864258 10.44799805 C-6.46414591 8.83190622 -5.3245494 7.2123316 -4.19018555 5.58911133 C-3.41155151 4.49312622 -3.41155151 4.49312622 -2.6171875 3.375 C-2.15940918 2.72273437 -1.70163086 2.07046875 -1.22998047 1.3984375 C-0.82408691 0.93695313 -0.41819336 0.47546875 0 0 Z M-3 14 C-3.89270954 15.09466678 -4.73993574 16.22669092 -5.5625 17.375 C-6.01753906 18.00148438 -6.47257813 18.62796875 -6.94140625 19.2734375 C-8.17423258 20.94663098 -8.17423258 20.94663098 -8 23 C-5.69 23 -3.38 23 -1 23 C-1.33 20.03 -1.66 17.06 -2 14 C-2.33 14 -2.66 14 -3 14 Z " fill="#3A3A3C" transform="translate(584,246)"/>
<path d="M0 0 C0.66 0 1.32 0 2 0 C3.00050349 5.07132109 3.99732158 10.14334731 4.99072266 15.21606445 C5.32922646 16.94184967 5.66873871 18.66743741 6.00927734 20.39282227 C6.49841967 22.87204655 6.98393788 25.35195705 7.46875 27.83203125 C7.62186646 28.60400345 7.77498291 29.37597565 7.93273926 30.17134094 C8.51489512 33.16434412 9 35.94281803 9 39 C6.69 39 4.38 39 2 39 C0 32.375 0 32.375 0 29 C-4.47826856 28.83164404 -8.63544383 28.92549027 -13 30 C-15.28385355 32.17314611 -16.75581287 34.37371236 -18.43359375 37.03125 C-20 39 -20 39 -23.9375 39.5625 C-25.4534375 39.2840625 -25.4534375 39.2840625 -27 39 C-25.74377125 35.56658219 -24.3210198 32.80400186 -22.12890625 29.8828125 C-21.55946289 29.11751221 -20.99001953 28.35221191 -20.40332031 27.5637207 C-19.79584961 26.75894287 -19.18837891 25.95416504 -18.5625 25.125 C-17.29774994 23.43391312 -16.03343291 21.74250231 -14.76953125 20.05078125 C-14.13740723 19.20725098 -13.5052832 18.3637207 -12.85400391 17.49462891 C-11.1125751 15.15147384 -9.39949811 12.79109148 -7.69921875 10.41796875 C-7.19898193 9.7223584 -6.69874512 9.02674805 -6.18334961 8.31005859 C-5.24327135 6.99993761 -4.30771745 5.68655575 -3.37719727 4.36962891 C-2.29975074 2.87701379 -1.15623636 1.43244838 0 0 Z M-3 14 C-3.89270954 15.09466678 -4.73993574 16.22669092 -5.5625 17.375 C-6.01753906 18.00148438 -6.47257812 18.62796875 -6.94140625 19.2734375 C-8.17423258 20.94663098 -8.17423258 20.94663098 -8 23 C-5.69 23 -3.38 23 -1 23 C-1.33 20.03 -1.66 17.06 -2 14 C-2.33 14 -2.66 14 -3 14 Z " fill="#3A3A3C" transform="translate(222,246)"/>
<path d="M0 0 C0.66 0 1.32 0 2 0 C2.86279373 4.42755451 3.7169747 8.85665525 4.56347656 13.28735352 C4.85217333 14.79203205 5.14315212 16.29627471 5.43652344 17.80004883 C5.85964001 19.9710398 6.27431931 22.14350514 6.6875 24.31640625 C6.81874268 24.98023819 6.94998535 25.64407013 7.08520508 26.32801819 C7.88752868 30.60354606 8.11802687 34.65513575 8 39 C5.69 39 3.38 39 1 39 C0.505 34.05 0.505 34.05 0 29 C-4.80014437 28.83561149 -9.3110021 28.89608794 -14 30 C-16.11607534 32.2077164 -17.24979817 34.3152264 -18.625 37.03125 C-20 39 -20 39 -22.125 39.59375 C-24.375 39.5625 -24.375 39.5625 -28 39 C-26.63653947 36.09829705 -25.07360381 33.58836398 -23.1640625 31.015625 C-22.59977539 30.2522583 -22.03548828 29.4888916 -21.45410156 28.70239258 C-20.85049805 27.89310303 -20.24689453 27.08381348 -19.625 26.25 C-18.6963916 25.00029419 -18.6963916 25.00029419 -17.74902344 23.7253418 C-16.46769284 22.00202081 -15.18512884 20.27961624 -13.90136719 18.55810547 C-12.08207785 16.11042779 -10.27729846 13.65275214 -8.4765625 11.19140625 C-7.4012695 9.73160298 -6.32575962 8.27195944 -5.25 6.8125 C-4.74936035 6.12381836 -4.2487207 5.43513672 -3.73291016 4.72558594 C-2.53688593 3.11342676 -1.27474923 1.55065972 0 0 Z M-4 15 C-5.36277086 16.78965547 -5.36277086 16.78965547 -6.625 19 C-7.29402344 20.11375 -7.29402344 20.11375 -7.9765625 21.25 C-8.48316406 22.11625 -8.48316406 22.11625 -9 23 C-6.36 23 -3.72 23 -1 23 C-1.33 20.36 -1.66 17.72 -2 15 C-2.66 15 -3.32 15 -4 15 Z " fill="#3A3A3C" transform="translate(125,246)"/>
<path d="M0 0 C1.04285156 -0.01675781 2.08570313 -0.03351563 3.16015625 -0.05078125 C5.9375 0.3125 5.9375 0.3125 7.80859375 1.58203125 C8.9375 3.3125 8.9375 3.3125 8.9375 7.3125 C6.9575 7.9725 4.9775 8.6325 2.9375 9.3125 C2.2775 8.6525 1.6175 7.9925 0.9375 7.3125 C-1.5625 6.97916667 -1.5625 6.97916667 -4.0625 7.3125 C-4.7225 7.9725 -5.3825 8.6325 -6.0625 9.3125 C-5.87924752 12.05573408 -5.31839812 13.07741118 -3.28515625 14.9453125 C-2.21587891 15.68394531 -2.21587891 15.68394531 -1.125 16.4375 C1.09459929 17.992428 3.01631003 19.39131003 4.9375 21.3125 C5.41847968 26.23252128 4.36189217 30.36895541 1.3125 34.25 C-1.83189435 37.47674754 -4.53835897 38.68848055 -9.0625 39.3125 C-12.64465344 39.29267258 -15.8755162 39.0400062 -19 37.125 C-20.4777657 34.60410556 -20.74277346 32.1900389 -21.0625 29.3125 C-18.7525 28.6525 -16.4425 27.9925 -14.0625 27.3125 C-13.4025 28.6325 -12.7425 29.9525 -12.0625 31.3125 C-7.72065798 31.12785634 -7.72065798 31.12785634 -4.0625 29.3125 C-3.61397188 26.90262066 -3.61397188 26.90262066 -4.0625 24.3125 C-5.9490456 22.51181855 -5.9490456 22.51181855 -8.4375 21.1875 C-11.61485794 19.32143264 -12.96981541 18.45152689 -15.0625 15.3125 C-14.8792674 9.63228935 -14.27607827 6.40569032 -10.0625 2.3125 C-6.71254758 0.19086347 -3.92789032 0.01460182 0 0 Z " fill="#3A3A3C" transform="translate(1013.0625,246.6875)"/>
<path d="M0 0 C2.6875 1.8125 2.6875 1.8125 4 4 C4 4.99 4 5.98 4 7 C1.35261084 8.4606285 0.10551666 9 -3 9 C-3.33 8.34 -3.66 7.68 -4 7 C-6.31 7.33 -8.62 7.66 -11 8 C-11 9.98 -11 11.96 -11 14 C-10.278125 14.2475 -9.55625 14.495 -8.8125 14.75 C-4.56457658 16.63796597 -1.65677235 18.30011861 0.0625 22.75 C-0.02430523 27.26387191 -1.41806729 30.33052594 -4 34 C-8.48533162 38.06809147 -13.05578145 39.24413755 -19 39 C-22.5 38 -22.5 38 -25 36 C-25.875 32.3125 -25.875 32.3125 -26 29 C-24.02 28.34 -22.04 27.68 -20 27 C-19.67 28.32 -19.34 29.64 -19 31 C-14.27584672 31.39875273 -14.27584672 31.39875273 -10 29.75 C-8.81625762 28.06194206 -8.81625762 28.06194206 -9.15625 26.12109375 C-10.3100301 23.22061877 -11.99633939 22.13874611 -14.5 20.3125 C-15.3146875 19.71050781 -16.129375 19.10851562 -16.96875 18.48828125 C-17.6390625 17.99714844 -18.309375 17.50601562 -19 17 C-20 16 -20 16 -20.3125 12.8125 C-19.87426918 7.46608399 -17.85045404 4.68223094 -13.9375 1.125 C-9.33956559 -0.63591105 -4.85508023 -0.68718059 0 0 Z " fill="#3A3A3C" transform="translate(925,247)"/>
<path d="M0 0 C2.04136395 -0.05451714 4.08315856 -0.09302485 6.125 -0.125 C7.83042969 -0.15980469 7.83042969 -0.15980469 9.5703125 -0.1953125 C13.08987044 0.00511791 15.76163763 0.62585811 19 2 C20.60725691 5.21451382 20.47397924 8.51333076 20 12 C17.92127697 15.93472574 15.80523515 18.69542097 12 21 C9.203125 21.29296875 9.203125 21.29296875 6.25 21.1875 C4.77273438 21.14689453 4.77273438 21.14689453 3.265625 21.10546875 C2.51796875 21.07066406 1.7703125 21.03585937 1 21 C0.72285156 22.14339844 0.44570313 23.28679687 0.16015625 24.46484375 C-0.20554378 25.95577465 -0.57143929 27.44665761 -0.9375 28.9375 C-1.11990234 29.69224609 -1.30230469 30.44699219 -1.49023438 31.22460938 C-2.88671875 36.88671875 -2.88671875 36.88671875 -4 38 C-5.99958364 38.04080783 -8.00045254 38.04254356 -10 38 C-9.37593437 30.25768584 -7.17578168 23.0576528 -5 15.625 C-4.62709848 14.32957254 -4.25469865 13.03400056 -3.8828125 11.73828125 C-1.15472274 2.30944549 -1.15472274 2.30944549 0 0 Z M5 6 C4.34 9.3 3.68 12.6 3 16 C7.94415148 15.72423234 7.94415148 15.72423234 12 13.1875 C13.21255387 11.05273445 13.21255387 11.05273445 12.6875 8.75 C12.460625 8.1725 12.23375 7.595 12 7 C9.69 6.67 7.38 6.34 5 6 Z " fill="#3A3A3C" transform="translate(530,247)"/>
<path d="M0 0 C2.31 0 4.62 0 7 0 C7.26554688 0.68707031 7.53109375 1.37414062 7.8046875 2.08203125 C8.15789063 2.98308594 8.51109375 3.88414062 8.875 4.8125 C9.39707031 6.15248047 9.39707031 6.15248047 9.9296875 7.51953125 C10.98832155 10.17711591 10.98832155 10.17711591 13 13 C13.61488281 12.31292969 14.22976563 11.62585938 14.86328125 10.91796875 C15.67152344 10.01691406 16.47976563 9.11585938 17.3125 8.1875 C18.11300781 7.29417969 18.91351562 6.40085938 19.73828125 5.48046875 C20.48464844 4.66191406 21.23101563 3.84335938 22 3 C22.515625 2.401875 23.03125 1.80375 23.5625 1.1875 C26.05747286 -0.87356454 28.9193096 -0.1743787 32 0 C30.66000502 3.006818 29.20154709 4.99762609 26.8125 7.25 C17.17366237 16.66748645 13.14201941 25.19548315 9 38 C6.69 38 4.38 38 2 38 C2.35835937 36.90945313 2.71671875 35.81890625 3.0859375 34.6953125 C6.82368507 21.97445472 4.99857662 14.03958239 0 2 C0 1.34 0 0.68 0 0 Z " fill="#3A3A3C" transform="translate(950,247)"/>
<path d="M0 0 C2.31 0 4.62 0 7 0 C8.65 4.29 10.3 8.58 12 13 C14.413125 10.6178125 14.413125 10.6178125 16.875 8.1875 C17.77992188 7.29417969 18.68484375 6.40085938 19.6171875 5.48046875 C22.09831514 3.04361667 22.09831514 3.04361667 24 0 C27.625 -0.1875 27.625 -0.1875 31 0 C29.59751108 4.39550996 27.51235129 6.78213139 24.1875 9.9375 C17.43559556 16.382964 13.51585681 20.86693102 11.1875 29.875 C10.97158203 30.65875 10.75566406 31.4425 10.53320312 32.25 C10.00831437 34.16292789 9.50219122 36.08098846 9 38 C6.69 38 4.38 38 2 38 C2.13277344 37.39414062 2.26554688 36.78828125 2.40234375 36.1640625 C2.97452734 33.44932286 3.4884936 30.72678045 4 28 C4.1753125 27.22011719 4.350625 26.44023437 4.53125 25.63671875 C5.7842662 18.4680203 3.61916888 12.85381535 1.12890625 6.22265625 C0 3 0 3 0 0 Z " fill="#3A3A3C" transform="translate(616,247)"/>
<path d="M0 0 C8.58 0 17.16 0 26 0 C25.67 1.98 25.34 3.96 25 6 C21.7 6 18.4 6 15 6 C14.75765625 6.98097656 14.5153125 7.96195313 14.265625 8.97265625 C12.48920413 16.13823919 10.68817406 23.29718957 8.8125 30.4375 C8.48894531 31.67371094 8.16539062 32.90992188 7.83203125 34.18359375 C7 37 7 37 6 38 C3.66702567 38.04092937 1.33294775 38.04241723 -1 38 C1.56019466 27.63665886 4.2162745 17.30570716 7 7 C4.03 6.67 1.06 6.34 -2 6 C-1.34 4.02 -0.68 2.04 0 0 Z " fill="#3A3A3C" transform="translate(829,247)"/>
<path d="M0 0 C8.58 0 17.16 0 26 0 C25.67 1.98 25.34 3.96 25 6 C21.7 6 18.4 6 15 6 C14.73445313 7.41023437 14.46890625 8.82046875 14.1953125 10.2734375 C13.02283163 16.13584185 11.4812137 21.86876048 9.875 27.625 C9.59785156 28.62917969 9.32070312 29.63335937 9.03515625 30.66796875 C8.35989931 33.11286455 7.68147179 35.55683066 7 38 C4.69 38 2.38 38 0 38 C0.61430423 30.8706101 2.49811668 24.33494834 4.5625 17.5 C4.89185547 16.39140625 5.22121094 15.2828125 5.56054688 14.140625 C6.36810457 11.42535856 7.18137729 8.71194685 8 6 C5.03 6 2.06 6 -1 6 C-0.67 4.02 -0.34 2.04 0 0 Z " fill="#3A3A3C" transform="translate(1044,247)"/>
<path d="M0 0 C8.91 0 17.82 0 27 0 C26.34 1.98 25.68 3.96 25 6 C20.545 6.495 20.545 6.495 16 7 C13.03 17.23 10.06 27.46 7 38 C4.69 38 2.38 38 0 38 C1.34820196 30.68032826 3.12518914 23.54178629 5.125 16.375 C5.40214844 15.37082031 5.67929687 14.36664063 5.96484375 13.33203125 C6.64010069 10.88713545 7.31852821 8.44316934 8 6 C5.03 6 2.06 6 -1 6 C-0.67 4.02 -0.34 2.04 0 0 Z " fill="#3A3A3C" transform="translate(254,247)"/>
<path d="M0 0 C2.31 0 4.62 0 7 0 C6.38333216 6.55209583 4.86097056 12.57227895 3 18.875 C2.72671875 19.82375 2.4534375 20.7725 2.171875 21.75 C0.15529337 28.68941327 0.15529337 28.68941327 -1 31 C3.29 31 7.58 31 12 31 C11.34 33.31 10.68 35.62 10 38 C3.4 38 -3.2 38 -10 38 C-7.10380926 25.18992555 -3.70313974 12.59920939 0 0 Z " fill="#3A3A3C" transform="translate(455,247)"/>
<path d="M0 0 C1.134375 0.020625 2.26875 0.04125 3.4375 0.0625 C0.87730534 10.42584114 -1.7787745 20.75679284 -4.5625 31.0625 C-0.6025 31.0625 3.3575 31.0625 7.4375 31.0625 C7.1075 33.3725 6.7775 35.6825 6.4375 38.0625 C-0.1625 38.0625 -6.7625 38.0625 -13.5625 38.0625 C-12.88493246 32.6419597 -12.18085424 28.13206866 -10.75 22.97265625 C-10.57621826 22.3426622 -10.40243652 21.71266815 -10.22338867 21.06358337 C-9.85962042 19.74956858 -9.49314467 18.43630044 -9.12402344 17.1237793 C-8.55749201 15.10717373 -8.00081298 13.08802831 -7.4453125 11.06835938 C-4.38625137 0.07695178 -4.38625137 0.07695178 0 0 Z " fill="#3A3A3C" transform="translate(417.5625,246.9375)"/>
<path d="M0 0 C1.134375 0.020625 2.26875 0.04125 3.4375 0.0625 C0.33677503 12.79371195 -3.07649364 25.43183969 -6.5625 38.0625 C-8.8725 38.0625 -11.1825 38.0625 -13.5625 38.0625 C-12.97490981 30.85533903 -11.07504064 24.06120559 -9.12402344 17.1237793 C-8.55749201 15.10717373 -8.00081298 13.08802831 -7.4453125 11.06835938 C-4.38625137 0.07695178 -4.38625137 0.07695178 0 0 Z " fill="#3A3A3C" transform="translate(385.5625,246.9375)"/>
</svg>
