<svg width="59" height="119" viewBox="0 0 59 119" fill="none" xmlns="http://www.w3.org/2000/svg">
<g clip-path="url(#clip0_12_2)">
<path d="M12.915 45.1013C13.5969 45.0969 13.5969 45.0969 14.2926 45.0923C14.784 45.0918 15.2755 45.0912 15.7818 45.0907C16.5468 45.0884 16.5468 45.0884 17.3274 45.086C18.4102 45.0836 19.493 45.0825 20.5759 45.0826C22.2119 45.0816 23.8477 45.0731 25.4837 45.0642C34.134 45.0412 41.8979 45.0966 49.1372 50.0009C51.1698 51.8856 53.5991 54.1469 53.5991 56.8822C53.0696 56.8832 53.0696 56.8832 52.5294 56.8842C48.862 56.8934 45.1951 56.9188 41.528 56.9537C40.1586 56.9646 38.7891 56.9713 37.4197 56.9738C35.4534 56.9781 33.4879 56.9973 31.5218 57.0195C30.9075 57.0176 30.2931 57.0158 29.6601 57.0139C28.8058 57.0277 28.8058 57.0277 27.9343 57.0418C27.1812 57.0464 27.1812 57.0464 26.413 57.0512C25.0286 57.2537 25.0286 57.2537 24.1939 58.4663C23.4678 59.9519 23.4712 60.5282 24.1115 62.0358C24.7807 62.6786 25.4685 63.3063 26.1808 63.9099C26.1808 64.2191 26.1808 64.5283 26.1808 64.8469C26.5223 64.8469 26.8637 64.8469 27.2155 64.8469C27.2155 65.1561 27.2155 65.4653 27.2155 65.7839C27.5569 65.7839 27.8984 65.7839 28.2501 65.7839C28.2501 66.0931 28.2501 66.4024 28.2501 66.7209C28.5916 66.7209 28.933 66.7209 29.2848 66.7209C29.2848 67.0302 29.2848 67.3394 29.2848 67.658C29.6262 67.658 29.9677 67.658 30.3194 67.658C30.3194 67.9672 30.3194 68.2764 30.3194 68.595C30.6609 68.595 31.0023 68.595 31.3541 68.595C32.12 69.3161 32.12 69.3161 33.0031 70.2933C35.5022 73.0291 35.5022 73.0291 38.5967 75.1542C40.5434 75.2433 40.5434 75.2433 42.2179 74.6856C43.4409 73.778 43.4409 73.778 43.4143 72.1381C43.4315 70.5012 43.4315 70.5012 42.4766 69.6199C42.2205 69.4363 41.9644 69.2527 41.7006 69.0635C41.7006 68.7543 41.7006 68.4451 41.7006 68.1265C41.3592 68.1265 41.0177 68.1265 40.666 68.1265C40.666 67.8173 40.666 67.508 40.666 67.1895C40.3245 67.1895 39.9831 67.1895 39.6313 67.1895C39.6313 66.8802 39.6313 66.571 39.6313 66.2524C39.2899 66.2524 38.9484 66.2524 38.5967 66.2524C38.5967 65.9432 38.5967 65.634 38.5967 65.3154C38.2552 65.3154 37.9138 65.3154 37.562 65.3154C37.562 65.0062 37.562 64.697 37.562 64.3784C37.0498 64.1465 37.0498 64.1465 36.5273 63.9099C43.0146 63.9099 49.5019 63.9099 56.1857 63.9099C56.1857 70.7234 55.2203 76.6922 49.992 81.7975C44.6798 86.1171 37.3668 86.4953 30.5862 86.4332C29.7991 86.4295 29.7991 86.4295 28.9961 86.4256C27.7127 86.4191 26.4295 86.41 25.1462 86.3984C25.1543 87.0033 25.1624 87.6081 25.1708 88.2313C25.199 90.4875 25.2168 92.7437 25.2314 95C25.2392 95.9743 25.2498 96.9485 25.2633 97.9227C25.2822 99.3277 25.2909 100.732 25.2977 102.138C25.3057 102.569 25.3138 103.001 25.322 103.445C25.3228 106.317 25.1023 109.213 22.8979 111.476C21.0569 112.947 19.3078 114.022 16.8164 114.055C14.0853 113.89 12.2438 113.379 10.1437 111.698C7.68475 108.729 7.78543 106.059 7.82308 102.434C7.82111 101.838 7.81915 101.241 7.81713 100.626C7.81213 98.9967 7.82 97.3679 7.83053 95.7389C7.83965 94.0319 7.83779 92.3249 7.8374 90.6179C7.83836 87.7539 7.84733 84.89 7.86147 82.026C7.87777 78.7145 7.8832 75.4031 7.88244 72.0915C7.88174 68.5633 7.88892 65.0352 7.89842 61.5071C7.90063 60.4908 7.90136 59.4745 7.90177 58.4582C7.903 56.5671 7.91305 54.6761 7.92412 52.785C7.92365 52.2213 7.92318 51.6576 7.9227 51.0768C7.92711 50.5632 7.93152 50.0496 7.93607 49.5204C7.9378 49.0734 7.93954 48.6263 7.94132 48.1657C8.07441 47.0434 8.07441 47.0434 9.10907 45.6379C10.5496 45.203 11.4265 45.108 12.915 45.1013Z" fill="#4071C6"/>
<path d="M9.59174 3.47182C10.817 3.29019 10.817 3.29019 12.3733 3.28252C13.2467 3.27361 13.2467 3.27361 14.1377 3.26451C14.7709 3.26589 15.404 3.26726 16.0563 3.26868C16.7073 3.26623 17.3584 3.26377 18.0291 3.26124C19.4118 3.25822 20.794 3.2582 22.1767 3.26285C23.9335 3.26818 25.6897 3.25884 27.4464 3.24508C29.1355 3.23431 30.8246 3.23764 32.5137 3.2394C33.1374 3.23414 33.7611 3.22887 34.4037 3.22345C40.9669 3.27177 45.8382 4.99726 50.5272 9.12691C55.2478 13.6461 56.9869 19.0642 56.7998 25.2668C56.093 31.5196 54.2205 36.7373 48.9085 40.9528C43.6073 43.8702 38.1473 44.3778 32.0692 44.3733C31.4606 44.3753 30.852 44.3773 30.225 44.3794C28.9464 44.382 27.6677 44.3823 26.3891 44.3803C24.4296 44.3788 22.4706 44.3898 20.5112 44.4016C19.266 44.4027 18.0209 44.403 16.7757 44.4026C16.1899 44.4069 15.6042 44.4112 15.0006 44.4156C14.4565 44.4127 13.9124 44.4098 13.3518 44.4068C12.8742 44.4071 12.3966 44.4074 11.9045 44.4077C10.3439 44.1936 9.64433 43.862 8.55709 42.8268C8.32217 41.7641 8.32217 41.7641 8.35501 40.5373C8.36168 40.098 8.36835 39.6586 8.37522 39.2059C8.39256 38.7484 8.40989 38.291 8.42776 37.8196C8.43709 37.3567 8.44643 36.8938 8.45605 36.4168C8.48045 35.2734 8.51448 34.131 8.55709 32.9881C8.9101 32.9864 9.26312 32.9847 9.62683 32.9829C13.2941 32.9633 16.9611 32.9309 20.6282 32.8908C21.9976 32.8776 23.3671 32.8677 24.7365 32.8611C26.7027 32.8511 28.6684 32.8293 30.6344 32.8051C31.2487 32.8045 31.8631 32.8039 32.4961 32.8033C33.0656 32.7941 33.6352 32.7848 34.2219 32.7753C34.975 32.7691 34.975 32.7691 35.7432 32.7627C37.079 32.6168 37.079 32.6168 37.9562 31.6471C38.6665 30.6471 38.6665 30.6471 38.6267 29.3571C37.1461 25.4836 32.6177 22.3105 29.5088 19.4305C28.8756 18.8249 28.8756 18.8249 28.2296 18.2071C25.7859 15.8262 25.7859 15.8262 22.5572 14.6411C20.9486 14.6048 20.9486 14.6048 19.6796 15.4189C18.757 16.5807 18.757 16.5807 18.9178 18.1165C19.5648 20.3711 20.6919 21.3313 22.5572 22.8565C23.5863 23.7303 24.6093 24.6089 25.6288 25.4919C25.6288 25.6465 25.6288 25.8011 25.6288 25.9604C19.9952 25.9604 14.3615 25.9604 8.55709 25.9604C8.53336 22.9835 8.51275 20.0069 8.50026 17.03C8.49505 16.017 8.48798 15.004 8.47904 13.991C8.46651 12.5362 8.46062 11.0814 8.45605 9.62653C8.45071 9.17262 8.44537 8.71871 8.43987 8.25105C8.43979 7.82905 8.43971 7.40706 8.43963 6.97228C8.43733 6.60086 8.43504 6.22945 8.43267 5.84678C8.55709 4.87736 8.55709 4.87736 9.59174 3.47182Z" fill="#DE5B20"/>
<path d="M-6.92804 -13.8631C103.697 -13.8631 214.322 -13.8631 328.299 -13.8631C328.299 32.5196 328.299 78.9023 328.299 126.69C217.674 126.69 107.049 126.69 -6.92804 126.69C-6.92804 80.3078 -6.92804 33.9251 -6.92804 -13.8631ZM-6.41072 -13.3946C-6.41072 32.6789 -6.41072 78.7523 -6.41072 126.222C103.873 126.222 214.156 126.222 327.782 126.222C327.782 80.1485 327.782 34.075 327.782 -13.3946C217.498 -13.3946 107.215 -13.3946 -6.41072 -13.3946Z" fill="#060606"/>
</g>
<defs>
<clipPath id="clip0_12_2">
<rect width="59" height="119" fill="white"/>
</clipPath>
</defs>
</svg>
